<svg width="303" height="335" viewBox="0 0 303 335" fill="none" xmlns="http://www.w3.org/2000/svg">
<path d="M52.7904 65.3452C52.4716 64.8465 50.462 61.7043 48.9732 62.0226C46.151 62.6259 47.6819 75.131 43.579 76.3781C42.6786 76.6518 41.4112 76.4124 38.5805 77.1696C37.4544 77.4708 36.8706 77.7184 36.6893 78.217C36.4321 78.9244 37.21 79.519 38.3652 81.2429C40.0977 83.8282 39.565 84.3067 41.0886 86.1599C42.2196 87.5356 43.1072 87.9944 42.9333 88.5981C42.6871 89.4523 40.7507 89.0852 40.2856 90.0645C39.811 91.0639 41.1888 92.791 42.3805 93.8468C44.6167 95.8282 46.8453 96.0195 48.8862 96.669C51.1041 97.3749 54.1373 98.952 57.2773 102.895L82.3704 136.861C80.3468 136.094 76.4038 134.519 71.0253 131.825C66.4886 129.551 61.9911 126.964 57.6569 124.131C55.788 122.91 54.1547 121.774 52.6874 120.715L52.8363 120.793L52.1196 118.199C51.8446 117.168 51.6644 116.326 52.0459 115.649C52.2564 115.287 52.6535 114.913 53.1163 114.48C53.6469 113.985 54.2495 113.424 54.8364 112.645C55.3805 111.944 55.5044 111.319 55.2326 110.796C55.1405 110.617 55.0193 110.491 54.8916 110.398C55.0376 110.167 55.2037 109.894 55.3515 109.566C55.6647 108.87 55.7414 108.273 55.7968 107.83C56.0242 106.045 55.7352 104.994 54.9346 104.704C54.5962 104.582 54.2907 104.638 54.0349 104.758C54.0159 104.392 53.9672 103.961 53.8338 103.497C53.4043 102.007 52.8066 101.251 52.0112 101.189C50.8997 101.101 50.3391 102.329 49.6912 103.749C49.4008 104.379 48.6388 106.059 48.2409 106.06C48.1916 106.06 48.0512 106.03 47.9268 106.002C47.5859 105.928 47.0719 105.816 46.2694 105.794C45.8196 105.781 45.1403 105.762 44.7248 106.319C44.3546 106.853 44.5372 107.421 44.7053 107.874C44.7611 108.024 44.8277 108.202 44.8944 108.418C45.0469 108.909 45.0724 109.175 45.0974 109.432C45.1298 109.766 45.1635 110.113 45.4032 110.685C45.4234 110.731 45.4419 110.774 45.4608 110.817C45.2356 110.868 44.9995 110.977 44.8013 111.197C44.0549 112.01 44.7511 113.354 45.0826 113.89C45.6788 114.847 46.4342 115.307 47.0417 115.678C47.1949 115.771 47.3455 115.863 47.491 115.962C48.2447 116.475 48.8699 117.253 49.3708 118.254C48.7782 117.802 48.2117 117.368 47.6799 116.958C45.7752 115.493 43.9844 114.065 42.2385 112.673C40.4433 111.241 38.6854 109.839 36.897 108.472L37.0097 107.981L36.5777 108.232C33.7576 106.087 30.853 104.027 27.592 102.073C27.4583 101.993 27.3002 101.899 27.1372 101.803L26.9819 101.242C26.7069 100.211 26.5268 99.3688 26.9082 98.6915C27.1187 98.3294 27.5159 97.9555 27.9787 97.5225C28.5093 97.0271 29.1119 96.4662 29.6988 95.6873C30.2429 94.9867 30.3668 94.3618 30.0949 93.8382C30.0028 93.6599 29.8817 93.5336 29.754 93.4405C29.8999 93.2095 30.0661 92.9366 30.2139 92.6087C30.527 91.9121 30.6038 91.3159 30.6591 90.872C30.8865 89.0876 30.5975 88.0364 29.7969 87.7464C29.4586 87.6243 29.1531 87.6801 28.8973 87.8003C28.8783 87.4343 28.8296 87.0036 28.6961 86.5395C28.2667 85.0492 27.669 84.2937 26.8736 84.2314C25.7622 84.1435 25.2015 85.3717 24.5536 86.791C24.2632 87.4216 23.5011 89.1013 23.1032 89.1028C23.0539 89.1023 22.9136 89.0721 22.7892 89.0448C22.4483 88.9706 21.9342 88.859 21.1318 88.8365C20.6819 88.8238 20.0027 88.8041 19.5871 89.3613C19.2169 89.8953 19.3995 90.4631 19.5677 90.9168C19.6235 91.0666 19.69 91.2444 19.7568 91.4602C19.9093 91.9519 19.9347 92.2171 19.9598 92.4742C19.9922 92.8086 20.0259 93.1558 20.2655 93.7272C20.2858 93.7736 20.3043 93.8168 20.3232 93.8594C20.098 93.9108 19.8619 94.0195 19.6636 94.24C18.9173 95.0521 19.6135 96.397 19.945 96.9322C20.5412 97.8899 21.2965 98.3499 21.9041 98.7201C22.0573 98.8135 22.2079 98.9051 22.3533 99.0043C22.7794 99.2944 23.1626 99.6728 23.5094 100.121C22.4032 99.7475 21.1259 99.4401 19.6857 99.3082C17.9644 99.1508 16.2205 99.267 14.4822 99.6458C14.47 99.5148 14.4581 99.3862 14.4447 99.2435C14.297 97.6446 14.1888 96.9812 13.6378 96.3595C13.3703 96.056 12.9605 95.722 11.7891 95.3406C10.1653 94.8118 8.77458 94.7319 8.38592 94.7197C6.4448 94.6644 4.76822 94.6169 3.24605 95.7878C2.9556 96.0096 2.07356 96.6817 1.5894 97.8671C1.34157 98.4669 1.29688 98.9538 1.26101 99.3453C1.22317 99.7544 1.19933 100.025 0.96958 100.404C0.824568 100.645 0.650111 100.842 0.511467 101.001C0.243719 101.318 -0.259547 101.899 0.162239 102.53C0.263599 102.683 0.391705 102.79 0.537305 102.863C0.460042 103.398 0.507155 103.952 0.772276 104.453C1.00982 104.904 1.41925 105.206 2.52232 105.745C4.21016 106.57 5.57042 106.971 5.84057 107.047C7.59132 107.544 8.46922 107.793 9.41028 107.757C11.4129 107.677 12.8676 107.056 13.734 105.91C13.7776 105.854 13.8181 105.797 13.8567 105.74C14.464 104.84 14.5297 103.898 14.6347 102.398C14.6545 102.108 14.6486 101.774 14.6232 101.349C16.2653 100.967 17.9108 100.837 19.5305 100.986C23.0366 101.307 25.5279 102.8 26.7245 103.518C29.7044 105.304 32.3911 107.189 34.9964 109.15L34.6824 109.332C33.755 109.86 32.9864 110.248 32.2344 110.05C31.8308 109.939 31.3683 109.649 30.8321 109.311C30.2183 108.924 29.523 108.483 28.6207 108.113C27.805 107.764 27.1691 107.803 26.7315 108.199C26.5825 108.333 26.491 108.482 26.4333 108.63C26.1728 108.547 25.8668 108.455 25.5121 108.396C24.7588 108.269 24.1627 108.346 23.7192 108.406C21.9356 108.638 20.992 109.184 20.9146 110.032C20.8823 110.391 21.0137 110.672 21.1949 110.889C20.8456 111 20.4413 111.157 20.0262 111.403C18.6936 112.197 18.1145 112.966 18.256 113.752C18.4529 114.849 19.7831 115.08 21.3204 115.347C22.004 115.468 23.8221 115.779 23.9244 116.163C23.9365 116.211 23.9429 116.354 23.9479 116.482C23.9626 116.83 23.9851 117.356 24.167 118.138C24.2687 118.576 24.422 119.238 25.0663 119.499C25.6768 119.721 26.1796 119.401 26.5759 119.123C26.7066 119.031 26.8618 118.922 27.0535 118.802C27.4905 118.53 27.7406 118.438 27.9829 118.349C28.2981 118.232 28.6254 118.112 29.1174 117.735C29.1571 117.704 29.1943 117.675 29.2306 117.646C29.3375 117.851 29.5025 118.051 29.766 118.187C30.741 118.703 31.8652 117.689 32.2988 117.232C33.074 116.413 33.3273 115.565 33.5313 114.884C33.5829 114.712 33.6333 114.543 33.6923 114.377C34.063 113.334 34.8369 112.369 35.9933 111.509L36.2433 111.323L36.4823 110.281C38.0521 111.491 39.6064 112.728 41.1891 113.99C42.941 115.388 44.7399 116.822 46.6524 118.293C49.1882 120.244 52.3429 122.672 56.7366 125.543C61.1236 128.409 65.6766 131.029 70.2715 133.33C74.3637 135.38 77.6412 136.793 79.89 137.7C73.337 138.138 64.2723 138.658 60.1757 138.732C58.5828 138.761 56.9414 138.736 55.7715 137.634C54.6451 136.573 54.0914 134.641 52.4526 132.624C52.2612 132.388 51.7201 131.739 51.2411 131.854C50.8451 131.949 50.8523 132.479 50.4839 132.573C49.9897 132.7 49.5758 131.848 48.5531 131.046C47.832 130.481 47.1748 130.229 46.6097 130.012C46.4393 129.946 43.8858 128.982 43.4169 129.683C43.0646 130.21 44.1939 131.22 43.8586 131.665C43.5245 132.108 42.2871 131.26 40.4198 131.33C40.083 131.343 37.961 131.422 37.6876 132.245C37.1694 133.804 43.7487 136.661 43.177 139.035C43.0515 139.555 42.5683 140.108 42.1232 141.716C41.9461 142.356 41.8992 142.714 42.0916 142.947C42.3646 143.277 42.8809 143.067 44.0603 142.997C45.8291 142.893 45.9102 143.292 47.2594 143.079C48.261 142.921 48.7422 142.618 48.9883 142.877C49.3365 143.245 48.5976 144.089 48.9441 144.6C49.2976 145.121 50.5428 144.943 51.4049 144.663C53.0226 144.137 53.7595 143.099 54.6671 142.284C55.6535 141.399 57.3028 140.366 60.1442 139.962L80.2568 137.846C81.4326 138.315 82.2991 138.636 82.8037 138.822C83.0724 138.921 83.245 138.983 83.3164 139.015L83.5828 138.502L83.8813 138.906C83.7888 138.775 83.6872 138.629 83.5894 138.49L83.7029 138.271L84.4731 137.93C84.3696 137.694 84.2559 137.591 83.9487 137.458L85.4948 137.295C85.0272 137.333 84.4645 137.376 83.863 137.421C83.7363 137.37 83.5808 137.312 83.3864 137.24C83.16 137.157 82.8529 137.043 82.4852 136.905C76.3853 128.109 63.8386 109.475 59.1685 101.848C57.7071 99.4613 56.2832 96.9541 56.9106 94.2017C57.5145 91.5516 59.947 88.9936 61.5424 84.7166C61.7288 84.2171 62.2298 82.8202 61.6297 82.197C61.1336 81.6818 60.3369 82.1648 59.8666 81.6908C59.2356 81.0549 60.1571 79.6696 60.46 77.4079C60.6736 75.8131 60.4712 74.5932 60.2971 73.5441C60.2446 73.2278 59.4306 68.5037 57.952 68.4176C56.8412 68.3529 56.3175 70.9615 55.345 70.85C54.376 70.7389 54.5587 68.1103 52.7904 65.3452Z" fill="#6C63FF" fill-opacity="0.6"/>
<path d="M284.687 241.274L105.065 216.447C99.0537 215.617 94.0919 211.309 92.424 205.474L51.1697 61.0835C49.7718 56.1897 50.8154 51.1223 54.033 47.1793C57.2505 43.2364 62.0043 41.1987 67.0806 41.5861L248.049 55.4509C254.597 55.9524 260.093 60.5628 261.726 66.9225L301.633 222.275C302.907 227.232 301.633 232.472 298.226 236.292C295.292 239.582 291.132 241.419 286.796 241.419C286.096 241.419 285.392 241.371 284.687 241.274Z" fill="#1F2937"/>
<path d="M236.389 107.183L130.63 97.4477C127.964 97.2023 125.889 95.9769 126.005 94.7163C126.121 93.4557 128.385 92.6302 131.051 92.8756L236.81 102.611C239.476 102.856 241.551 104.081 241.435 105.341C241.319 106.602 239.056 107.428 236.389 107.183Z" fill="#334257"/>
<path d="M242.156 134.98L136.397 125.245C133.731 125 131.656 123.774 131.772 122.514C131.888 121.253 134.152 120.428 136.818 120.673L242.577 130.408C245.244 130.653 247.318 131.878 247.202 133.139C247.086 134.399 244.823 135.226 242.156 134.98Z" fill="#334257"/>
<path d="M244.192 159.208L138.432 149.473C135.766 149.228 133.691 148.002 133.807 146.742C133.923 145.481 136.187 144.655 138.853 144.901L244.612 154.636C247.279 154.881 249.353 156.106 249.237 157.367C249.121 158.627 246.858 159.453 244.192 159.208Z" fill="#334257"/>
<path d="M247.609 185.621L141.85 175.886C139.183 175.641 137.108 174.415 137.224 173.155C137.34 171.894 139.604 171.069 142.271 171.314L248.03 181.049C250.696 181.294 252.77 182.519 252.654 183.78C252.538 185.04 250.275 185.867 247.609 185.621Z" fill="#334257"/>
<path d="M178.248 122.234C180.902 119.342 184.546 118.368 186.386 120.057C188.227 121.747 187.566 125.461 184.91 128.353C183.865 129.524 182.555 130.426 181.09 130.986L169.687 143.098L164.118 137.627L175.95 126.267C176.383 124.759 177.17 123.376 178.248 122.234Z" fill="#FFB6B6"/>
<path d="M113.242 124.93C113.242 124.93 119.905 118.835 127.878 124.156C135.851 129.477 154.418 143.087 154.418 143.087L167.429 126.951L177.681 136.244C177.681 136.244 159.597 168.097 147.913 161.086C136.23 154.076 110.147 134.064 111.331 129.923C112.515 125.782 113.242 124.93 113.242 124.93Z" fill="#6366F1"/>
<path d="M162.577 273.59L151.962 293.371L143.218 282.79L153.276 269.199L162.577 273.59Z" fill="#FFB6B6"/>
<path d="M155.713 290.637L151.221 314.906C151.221 314.906 148.206 323.323 143.36 314.774C138.514 306.224 129.74 288.536 134.784 285.294C139.829 282.052 145.922 279.433 145.922 279.433L155.713 290.637Z" fill="#2F2E41"/>
<path d="M168.842 295.132L180.042 315.292L166.042 316.972L159.882 300.732L168.842 295.132Z" fill="#FFB6B6"/>
<path d="M109.483 112.572C109.483 112.572 108.363 123.772 106.683 124.892C105.003 126.012 126.292 124.892 126.292 124.892L120.123 112.572H109.483Z" fill="#FFB6B6"/>
<path d="M132.439 128.261L124.603 122.092H105.444L92.6831 132.732L100.803 170.532L96.8831 189.012L146.723 190.692L137.763 173.892C137.763 173.892 148.403 162.692 145.043 155.412C141.683 148.132 132.439 128.261 132.439 128.261Z" fill="#6366F1"/>
<path d="M141.683 186.212L148.963 190.132C148.963 190.132 188.163 227.092 184.803 238.292C181.443 249.492 159.043 281.412 159.043 281.412L148.403 275.812L164.083 241.652L134.123 211.692L150.205 240.042L173.043 299.892L159.603 305.492L124.883 235.492C124.883 235.492 96.3227 215.892 94.6427 203.572C92.9627 191.252 96.8827 189.012 96.8827 189.012L141.683 186.212Z" fill="#2F2E41"/>
<path d="M179.763 310.532L198.243 327.892C198.243 327.892 203.843 335.172 193.763 334.612C183.683 334.052 163.523 331.812 163.523 325.652C163.523 319.492 164.643 312.772 164.643 312.772L179.763 310.532Z" fill="#2F2E41"/>
<path d="M115.082 115.372C122.196 115.372 127.962 109.605 127.962 102.492C127.962 95.3783 122.196 89.6117 115.082 89.6117C107.969 89.6117 102.202 95.3783 102.202 102.492C102.202 109.605 107.969 115.372 115.082 115.372Z" fill="#FFB6B6"/>
<path d="M170.956 153.885L160.341 186.212C160.058 187.073 159.323 187.709 158.43 187.864L138.13 191.395C136.309 191.711 134.805 189.979 135.374 188.221L145.975 155.455C146.261 154.57 147.022 153.923 147.941 153.784L168.255 150.692C170.064 150.417 171.527 152.146 170.956 153.885Z" fill="white"/>
<path d="M137.7 191.992C136.836 191.992 136.016 191.623 135.434 190.953C134.736 190.148 134.514 189.062 134.842 188.049L145.443 155.282C145.797 154.189 146.722 153.403 147.858 153.23L168.172 150.139C169.214 149.98 170.245 150.366 170.927 151.172C171.608 151.978 171.819 153.057 171.489 154.06L160.874 186.386C160.526 187.447 159.627 188.224 158.527 188.416L138.227 191.946C138.051 191.977 137.875 191.992 137.7 191.992ZM168.63 151.224C168.534 151.224 168.437 151.231 168.34 151.246L148.026 154.337C147.312 154.446 146.731 154.94 146.509 155.627L135.936 188.308C135.742 188.908 135.805 189.582 136.178 190.09C136.613 190.685 137.322 190.965 138.035 190.843L146.181 189.426C154.351 188.006 161.072 182.196 163.659 174.317L170.405 153.771C170.575 153.254 170.554 152.677 170.286 152.203C169.933 151.58 169.303 151.224 168.63 151.224Z" fill="#3F3D56"/>
<path d="M139.969 179.069C143.892 179.214 146.997 181.356 146.904 183.852C146.811 186.349 143.556 188.254 139.631 188.109C138.063 188.072 136.526 187.66 135.149 186.908L118.535 186.082L119.089 178.294L135.409 179.934C136.838 179.286 138.401 178.989 139.969 179.069Z" fill="#FFB6B6"/>
<path d="M95.7616 131.332C95.7616 131.332 104.722 132.452 105.842 141.972C106.962 151.492 108.642 174.452 108.642 174.452L129.362 173.892L128.936 187.722C128.936 187.722 92.9616 194.612 90.7216 181.172C88.4816 167.732 86.8016 134.899 90.7216 133.115C94.6416 131.332 95.7616 131.332 95.7616 131.332Z" fill="#6366F1"/>
<path d="M214.333 66.7179L209.724 64.5347C211.614 67.1728 213.243 71.2928 214.115 74.5713C215.592 71.5174 217.972 67.7807 220.328 65.5486L215.457 66.8017C218.458 52.0917 229.748 41.5313 242.675 41.5313L242.858 41C229.355 41 217.397 51.414 214.333 66.7179Z" fill="#3F3D56"/>
<path d="M250.108 207.747L221.1 205.196C219.87 205.088 218.957 203.999 219.065 202.768C219.173 201.538 220.262 200.625 221.493 200.733L250.501 203.284C251.731 203.392 252.644 204.481 252.536 205.712C252.428 206.942 251.339 207.855 250.108 207.747Z" fill="#6366F1"/>
<path d="M167.129 158.883L148.033 160.492C147.552 160.532 147.127 160.174 147.087 159.692C147.046 159.211 147.405 158.786 147.886 158.746L166.982 157.136C167.463 157.096 167.888 157.454 167.929 157.936C167.969 158.417 167.611 158.842 167.129 158.883Z" fill="#3F3D56"/>
<path d="M165.449 164.483L146.353 166.092C145.872 166.132 145.447 165.774 145.406 165.292C145.366 164.811 145.725 164.386 146.206 164.346L165.302 162.737C165.783 162.696 166.208 163.054 166.248 163.536C166.289 164.017 165.93 164.442 165.449 164.483Z" fill="#3F3D56"/>
<path d="M163.768 170.083L144.672 171.692C144.191 171.732 143.766 171.374 143.725 170.892C143.685 170.411 144.043 169.986 144.525 169.946L163.621 168.337C164.102 168.296 164.527 168.654 164.567 169.136C164.608 169.617 164.249 170.042 163.768 170.083Z" fill="#3F3D56"/>
<path d="M111.635 107.123L120.646 96.7766L119.144 92.4127L123.981 97.0092L126.478 96.331C126.478 96.331 126.456 87.4711 119.382 87.0709C112.307 86.6706 107.232 87.4159 107.232 87.4159C107.232 87.4159 97.1165 90.5858 96.721 93.0152C96.3254 95.4447 90.6585 98.6727 90.6585 98.6727C90.6585 98.6727 85.7416 102.33 88.0401 108.461C90.3387 114.591 95.5836 122.243 91.9529 125.974C88.3223 129.704 83.1917 132.575 85.6916 134.007C88.1914 135.439 92.7005 128.726 96.8071 131.41C100.914 134.094 107.853 144.875 114.362 139.307C120.871 133.739 122.074 127.291 122.074 127.291L111.686 117.025C111.686 117.025 105.393 106.29 111.635 107.123Z" fill="#2F2E41"/>
<path d="M254.835 2.92342H226.529C225.816 2.92342 225.235 2.34277 225.235 1.62915C225.235 0.915528 225.816 0.335144 226.529 0.335144H254.835C255.549 0.335144 256.129 0.915534 256.129 1.62915C256.129 2.34277 255.549 2.92342 254.835 2.92342Z" fill="#3F3D56"/>
<path d="M270.024 16.731H211.339C210.626 16.731 210.045 16.1503 210.045 15.4367C210.045 14.7231 210.626 14.1427 211.339 14.1427H270.024C270.737 14.1427 271.318 14.7231 271.318 15.4367C271.318 16.1503 270.737 16.731 270.024 16.731Z" fill="#3F3D56"/>
</svg>
