<svg width="522" height="140" viewBox="0 0 522 140" fill="none" xmlns="http://www.w3.org/2000/svg">
<rect x="17" width="105" height="40" rx="15" fill="#6159EB"/>
<g filter="url(#filter0_d_61_258)">
<rect x="86" width="20" height="40" fill="#6159EB"/>
</g>
<path d="M17 15C17 6.71573 23.7157 0 32 0H106V122C106 130.284 99.2843 137 91 137H17V15Z" fill="#6C63FF"/>
<path d="M17 15C17 6.71573 23.7157 0 32 0H106V122C106 130.284 99.2843 137 91 137H17V15Z" fill="#6C63FF"/>
<path d="M17 15C17 6.71573 23.7157 0 32 0H106V122C106 130.284 99.2843 137 91 137H17V15Z" fill="#6C63FF"/>
<line x1="30" y1="117" x2="93" y2="117" stroke="#524BCE" stroke-width="6"/>
<line x1="30" y1="96" x2="93" y2="96" stroke="#524BCE" stroke-width="6"/>
<line x1="30" y1="83" x2="93" y2="83" stroke="#524BCE" stroke-width="6"/>
<line x1="30" y1="70" x2="93" y2="70" stroke="#524BCE" stroke-width="6"/>
<line x1="30" y1="57" x2="93" y2="57" stroke="#524BCE" stroke-width="6"/>
<line x1="30" y1="44" x2="93" y2="44" stroke="#524BCE" stroke-width="6"/>
<line x1="30" y1="21" x2="93" y2="21" stroke="#524BCE" stroke-width="10"/>
<rect x="1" y="110" width="105" height="30" rx="15" fill="#6C63FF"/>
<rect x="1" y="110" width="105" height="30" rx="15" fill="#6C63FF"/>
<rect x="1" y="110" width="105" height="30" rx="15" fill="#6159EB"/>
<path d="M48.1462 54.6004L77.978 61.4972L56.0799 84.1734L48.1462 54.6004Z" fill="white"/>
<rect x="62.3828" y="76.1338" width="11.2001" height="12.6001" transform="rotate(-46 62.3828 76.1338)" fill="white"/>
<path d="M142.016 99V54.2H161.6C166.464 54.2 170.731 55.1387 174.4 57.016C178.069 58.8933 180.928 61.496 182.976 64.824C185.024 68.152 186.048 72.0773 186.048 76.6C186.048 81.08 185.024 85.0053 182.976 88.376C180.928 91.704 178.069 94.3067 174.4 96.184C170.731 98.0613 166.464 99 161.6 99H142.016ZM150.336 91.96H161.216C164.587 91.96 167.488 91.32 169.92 90.04C172.395 88.76 174.293 86.968 175.616 84.664C176.981 82.36 177.664 79.672 177.664 76.6C177.664 73.4853 176.981 70.7973 175.616 68.536C174.293 66.232 172.395 64.44 169.92 63.16C167.488 61.88 164.587 61.24 161.216 61.24H150.336V91.96ZM194.123 99V64.824H202.123V99H194.123ZM198.155 59.192C196.662 59.192 195.424 58.7227 194.443 57.784C193.504 56.8453 193.035 55.7147 193.035 54.392C193.035 53.0267 193.504 51.896 194.443 51C195.424 50.0613 196.662 49.592 198.155 49.592C199.648 49.592 200.864 50.04 201.803 50.936C202.784 51.7893 203.275 52.8773 203.275 54.2C203.275 55.608 202.806 56.8027 201.867 57.784C200.928 58.7227 199.691 59.192 198.155 59.192ZM228.303 99.448C224.719 99.448 221.519 98.7013 218.703 97.208C215.93 95.672 213.754 93.5813 212.175 90.936C210.596 88.2907 209.807 85.2827 209.807 81.912C209.807 78.4987 210.596 75.4907 212.175 72.888C213.754 70.2427 215.93 68.1733 218.703 66.68C221.519 65.1867 224.719 64.44 228.303 64.44C231.631 64.44 234.554 65.1227 237.071 66.488C239.631 67.8107 241.572 69.7733 242.895 72.376L236.751 75.96C235.727 74.3387 234.468 73.144 232.975 72.376C231.524 71.608 229.946 71.224 228.239 71.224C226.276 71.224 224.506 71.6507 222.927 72.504C221.348 73.3573 220.111 74.5947 219.215 76.216C218.319 77.7947 217.871 79.6933 217.871 81.912C217.871 84.1307 218.319 86.0507 219.215 87.672C220.111 89.2507 221.348 90.4667 222.927 91.32C224.506 92.1733 226.276 92.6 228.239 92.6C229.946 92.6 231.524 92.216 232.975 91.448C234.468 90.68 235.727 89.4853 236.751 87.864L242.895 91.448C241.572 94.008 239.631 95.992 237.071 97.4C234.554 98.7653 231.631 99.448 228.303 99.448ZM268.89 64.44C271.621 64.44 274.053 64.9733 276.186 66.04C278.362 67.1067 280.069 68.7493 281.306 70.968C282.543 73.144 283.162 75.96 283.162 79.416V99H275.162V80.44C275.162 77.4107 274.437 75.1493 272.986 73.656C271.578 72.1627 269.594 71.416 267.034 71.416C265.157 71.416 263.493 71.8 262.042 72.568C260.591 73.336 259.461 74.488 258.65 76.024C257.882 77.5173 257.498 79.416 257.498 81.72V99H249.498V51.512H257.498V74.04L255.77 71.224C256.965 69.048 258.693 67.384 260.954 66.232C263.258 65.0373 265.903 64.44 268.89 64.44ZM306.175 99.448C302.42 99.448 299.519 98.488 297.47 96.568C295.423 94.6053 294.399 91.7253 294.399 87.928V57.272H302.399V87.736C302.399 89.3573 302.804 90.616 303.615 91.512C304.468 92.408 305.641 92.856 307.135 92.856C308.927 92.856 310.42 92.3867 311.615 91.448L313.855 97.144C312.916 97.912 311.764 98.488 310.399 98.872C309.033 99.256 307.625 99.448 306.175 99.448ZM288.767 71.48V65.08H311.551V71.48H288.767ZM321.204 99V54.2H328.052L356.148 88.696H352.756V54.2H361.012V99H354.164L326.068 64.504H329.46V99H321.204ZM388.312 99.448C384.515 99.448 381.187 98.7013 378.328 97.208C375.512 95.672 373.315 93.5813 371.736 90.936C370.2 88.2907 369.432 85.2827 369.432 81.912C369.432 78.4987 370.179 75.4907 371.672 72.888C373.208 70.2427 375.299 68.1733 377.944 66.68C380.632 65.1867 383.683 64.44 387.096 64.44C390.424 64.44 393.389 65.1653 395.992 66.616C398.595 68.0667 400.643 70.1147 402.136 72.76C403.629 75.4053 404.376 78.52 404.376 82.104C404.376 82.4453 404.355 82.8293 404.312 83.256C404.312 83.6827 404.291 84.088 404.248 84.472H375.768V79.16H400.024L396.888 80.824C396.931 78.8613 396.525 77.1333 395.672 75.64C394.819 74.1467 393.645 72.9733 392.152 72.12C390.701 71.2667 389.016 70.84 387.096 70.84C385.133 70.84 383.405 71.2667 381.912 72.12C380.461 72.9733 379.309 74.168 378.456 75.704C377.645 77.1973 377.24 78.968 377.24 81.016V82.296C377.24 84.344 377.709 86.1573 378.648 87.736C379.587 89.3147 380.909 90.5307 382.616 91.384C384.323 92.2373 386.285 92.664 388.504 92.664C390.424 92.664 392.152 92.3653 393.688 91.768C395.224 91.1707 396.589 90.232 397.784 88.952L402.072 93.88C400.536 95.672 398.595 97.0587 396.248 98.04C393.944 98.9787 391.299 99.448 388.312 99.448ZM424.925 99.448C421.17 99.448 418.269 98.488 416.22 96.568C414.173 94.6053 413.149 91.7253 413.149 87.928V57.272H421.149V87.736C421.149 89.3573 421.554 90.616 422.365 91.512C423.218 92.408 424.391 92.856 425.885 92.856C427.677 92.856 429.17 92.3867 430.365 91.448L432.605 97.144C431.666 97.912 430.514 98.488 429.149 98.872C427.783 99.256 426.375 99.448 424.925 99.448ZM407.517 71.48V65.08H430.301V71.48H407.517ZM442.371 99.448C440.92 99.448 439.683 98.9573 438.659 97.976C437.635 96.952 437.123 95.672 437.123 94.136C437.123 92.5147 437.635 91.2347 438.659 90.296C439.683 89.3147 440.92 88.824 442.371 88.824C443.821 88.824 445.059 89.3147 446.083 90.296C447.107 91.2347 447.619 92.5147 447.619 94.136C447.619 95.672 447.107 96.952 446.083 97.976C445.059 98.9573 443.821 99.448 442.371 99.448Z" fill="white"/>
<defs>
<filter id="filter0_d_61_258" x="82" y="0" width="28" height="48" filterUnits="userSpaceOnUse" color-interpolation-filters="sRGB">
<feFlood flood-opacity="0" result="BackgroundImageFix"/>
<feColorMatrix in="SourceAlpha" type="matrix" values="0 0 0 0 0 0 0 0 0 0 0 0 0 0 0 0 0 0 127 0" result="hardAlpha"/>
<feOffset dy="4"/>
<feGaussianBlur stdDeviation="2"/>
<feComposite in2="hardAlpha" operator="out"/>
<feColorMatrix type="matrix" values="0 0 0 0 0 0 0 0 0 0 0 0 0 0 0 0 0 0 0.25 0"/>
<feBlend mode="normal" in2="BackgroundImageFix" result="effect1_dropShadow_61_258"/>
<feBlend mode="normal" in="SourceGraphic" in2="effect1_dropShadow_61_258" result="shape"/>
</filter>
</defs>
</svg>
